<svg xmlns="http://www.w3.org/2000/svg" width="640" height="192" viewBox="0 0 640 192">
  <!-- desk_l: extruded desk box (top + two side faces), monitor seated ON the top -->
  <g transform="translate(0,0)">
    <polygon points="64,12 106,30 64,48 22,30" fill="#C9A06A"/>
    <polygon points="22,30 64,48 64,62 22,44" fill="#A07840"/>
    <polygon points="64,48 106,30 106,44 64,62" fill="#8A6534"/>
    <rect x="60" y="24" width="8" height="6" fill="#3A3F4A"/>
    <rect x="44" y="4" width="40" height="22" rx="2" fill="#E2E6EA"/>
    <rect x="47" y="7" width="34" height="16" fill="#1a2030"/>
    <polygon points="86,34 98,39 90,43 78,38" fill="#EDE6D8"/>
  </g>
  <!-- desk_r -->
  <g transform="translate(128,0)">
    <polygon points="64,12 106,30 64,48 22,30" fill="#BE945E"/>
    <polygon points="22,30 64,48 64,62 22,44" fill="#966F3A"/>
    <polygon points="64,48 106,30 106,44 64,62" fill="#7E5C2F"/>
    <rect x="60" y="24" width="8" height="6" fill="#3A3F4A"/>
    <rect x="44" y="4" width="40" height="22" rx="2" fill="#D9DEE3"/>
    <rect x="47" y="7" width="34" height="16" fill="#243048"/>
    <polygon points="86,34 98,39 90,43 78,38" fill="#EDE6D8"/>
  </g>
  <!-- chair (office task chair: backrest toward the desk, dark base).
       Nudged 8px up-cell so the seat tucks under the desk's front face. -->
  <g transform="translate(256,-8)">
    <ellipse cx="64" cy="56" rx="6" ry="3.5" fill="#2E343C"/>
    <rect x="62" y="44" width="4" height="12" fill="#3A4048"/>
    <ellipse cx="64" cy="44" rx="13" ry="8" fill="#525B68"/>
    <rect x="52" y="26" width="6" height="16" fill="#3E4650"/>
    <ellipse cx="55" cy="26" rx="6" ry="9" fill="#454D58"/>
  </g>
  <!-- partition_h -->
  <g transform="translate(384,0)">
    <rect x="16" y="22" width="96" height="20" fill="#A8B0C0"/>
    <line x1="20" y1="26" x2="108" y2="38" stroke="#788898" stroke-width="2"/>
  </g>
  <!-- partition_v -->
  <g transform="translate(512,0)">
    <rect x="52" y="16" width="24" height="32" fill="#98A8B8"/>
    <line x1="56" y1="20" x2="72" y2="44" stroke="#687888" stroke-width="2"/>
  </g>
  <!-- reception_desk -->
  <g transform="translate(0,64)">
    <path d="M20,52 L108,52 L96,28 Q64,18 32,28 Z" fill="#C4A880"/>
    <rect x="56" y="14" width="16" height="12" fill="#D8DCE0"/>
  </g>
  <!-- watercooler -->
  <g transform="translate(128,64)">
    <rect x="52" y="20" width="24" height="36" fill="#B0C8E0" rx="2"/>
    <ellipse cx="64" cy="16" rx="10" ry="6" fill="#E8F0FF"/>
  </g>
  <!-- plant -->
  <g transform="translate(256,64)">
    <rect x="50" y="40" width="28" height="16" fill="#8B7355"/>
    <ellipse cx="64" cy="30" rx="24" ry="18" fill="#608860"/>
    <ellipse cx="56" cy="22" rx="10" ry="10" fill="#90B090"/>
  </g>
  <!-- whiteboard -->
  <g transform="translate(384,64)">
    <rect x="16" y="16" width="96" height="32" fill="#E8E8E8"/>
    <line x1="24" y1="24" x2="104" y2="40" stroke="#4A90D4" stroke-width="3"/>
  </g>
  <!-- ceiling_light -->
  <g transform="translate(512,64)">
    <ellipse cx="64" cy="36" rx="36" ry="16" fill="#FFF8E0" opacity="0.9"/>
    <ellipse cx="64" cy="34" rx="14" ry="8" fill="#FFE8A0"/>
  </g>
  <!-- carpet_tile -->
  <g transform="translate(0,128)">
    <polygon points="64,16 112,32 64,48 16,32" fill="#9A8A7A"/>
    <polygon points="64,20 100,32 64,44 28,32" fill="#8A7A6A" opacity="0.6"/>
  </g>
</svg>
